<svg width="95" height="46" viewBox="0 0 95 46" fill="none" xmlns="http://www.w3.org/2000/svg">
<g id="Group_2">
<path id="Vector" d="M7.71 38.8208C3.28 34.7908 0.5 28.9908 0.5 22.5308C0.5 16.0708 3.28 10.2708 7.71 6.2408" stroke="white"/>
<path id="Vector_2" d="M7.70996 6.24081C11.62 2.69081 16.81 0.530807 22.5 0.530807H47.5" stroke="white"/>
<path id="Vector_3" d="M7.70996 38.8208C11.62 42.3708 16.81 44.5308 22.5 44.5308H47.5" stroke="white"/>
<path id="Vector_4" d="M87.29 38.8208C91.72 34.7908 94.5 28.9908 94.5 22.5308C94.5 16.0708 91.72 10.2708 87.29 6.2408" stroke="white"/>
<path id="Vector_5" d="M87.29 6.24081C83.38 2.69081 78.19 0.530807 72.5 0.530807H47.5" stroke="white"/>
<path id="Vector_6" d="M87.29 38.8208C83.38 42.3708 78.19 44.5308 72.5 44.5308H47.5" stroke="white"/>
</g>
</svg>
